# xmcd
#
# Track frame offsets:
#	150
#	14357
#	29625
#	44937
#	59574
#	72163
#	86872
#	99737
#	115107
#	131545
#	145307
#	165063
#	178652
#	192110
#	211951
#	226257
#	239419
#	252850
#
# Disc length: 3632 seconds
#
# Revision: 0
# Processed by: cddbd v1.5.2PL0 Copyright (c) Steve Scherf et al.
# Submitted via: EZCDAudioConverter 6.0.2.1
#
DISCID=040e2e12
DTITLE=Lightnin' Wells - O Lightnin', Where Art Thou?
DYEAR=2017
DGENRE=Blues
TTITLE0=Pallet On The Floor
TTITLE1=Love In Vain
TTITLE2=Mama Don't Allow Now (Staying Out All Night)
TTITLE3=Jonestown Blues
TTITLE4=New York Town
TTITLE5=Waiting For The Evening Mail
TTITLE6=Sugar Baby
TTITLE7=Try Me One More Time
TTITLE8=San Francisco Bay Blues
TTITLE9=Old Jim Kinnane's
TTITLE10=Crawling King Snake
TTITLE11=My Papa Doesn't Two Time No Time
TTITLE12=Freight Train Boogie
TTITLE13=Darling Corey
TTITLE14=Guitar Rag
TTITLE15=Down In Caroline
TTITLE16=I'm Gonna Walk On The Streets of Glory
TTITLE17=Walking My Troubles Away
EXTD=
EXTT0=
EXTT1=
EXTT2=
EXTT3=
EXTT4=
EXTT5=
EXTT6=
EXTT7=
EXTT8=
EXTT9=
EXTT10=
EXTT11=
EXTT12=
EXTT13=
EXTT14=
EXTT15=
EXTT16=
EXTT17=
PLAYORDER=
